# Created by FreeCAD <http://www.freecadweb.org>
v 52.700001 20.600000 0.000000
v 0.000000 20.600000 0.000000
v 0.000000 20.600000 11.000000
v 52.700001 20.600000 11.000000
v 0.000000 6.300000 7.000000
v 0.000000 0.000000 11.000000
v 0.000000 6.300000 10.000000
v 0.000000 0.000000 0.000000
v 0.000000 14.300000 7.000000
v 0.000000 14.300000 10.000000
v 52.700001 0.000000 0.000000
v 52.700001 0.000000 11.000000
v 51.779003 0.975753 0.000000
v 51.779003 19.775753 0.000000
v 0.879005 0.975753 0.000000
v 0.879005 19.775753 0.000000
v 5.251199 19.103731 11.000000
v 4.882385 19.103731 11.000000
v 4.524287 19.015467 11.000000
v 15.900000 15.300000 11.000000
v 5.935866 16.325930 11.000000
v 5.937580 4.346554 11.000000
v 41.900002 15.300000 11.000000
v 4.197718 18.844070 11.000000
v 3.921657 18.599501 11.000000
v 6.211927 16.570499 11.000000
v 3.712146 18.295973 11.000000
v 3.581363 17.951126 11.000000
v 5.610367 4.518289 11.000000
v 41.900002 5.300000 11.000000
v 3.536907 17.584999 11.000000
v 3.581363 17.218874 11.000000
v 3.712146 16.874027 11.000000
v 3.709474 3.797375 11.000000
v 15.900000 5.300000 11.000000
v 5.609297 19.015467 11.000000
v 5.935866 18.844070 11.000000
v 6.421438 16.874027 11.000000
v 6.214186 2.068497 11.000000
v 5.937580 1.823446 11.000000
v 5.609297 16.154533 11.000000
v 5.251563 4.606727 11.000000
v 6.424110 2.372624 11.000000
v 5.610367 1.651711 11.000000
v 6.552221 17.218874 11.000000
v 5.251199 16.066269 11.000000
v 6.555151 2.718152 11.000000
v 4.882021 4.606727 11.000000
v 6.599695 3.085000 11.000000
v 6.596677 17.584999 11.000000
v 4.882385 16.066269 11.000000
v 6.555151 3.451848 11.000000
v 6.552221 17.951126 11.000000
v 4.524287 16.154533 11.000000
v 6.424110 3.797375 11.000000
v 4.523217 4.518289 11.000000
v 6.214186 4.101503 11.000000
v 6.421438 18.295973 11.000000
v 4.197718 16.325930 11.000000
v 4.196004 4.346554 11.000000
v 6.211927 18.599501 11.000000
v 3.921657 16.570499 11.000000
v 3.919398 4.101503 11.000000
v 3.578432 3.451848 11.000000
v 3.533889 3.085000 11.000000
v 3.578432 2.718152 11.000000
v 3.709474 2.372624 11.000000
v 3.919398 2.068497 11.000000
v 4.196004 1.823446 11.000000
v 4.523217 1.651711 11.000000
v 4.882021 1.563274 11.000000
v 5.251563 1.563274 11.000000
v 0.879005 14.300000 9.000000
v 0.879005 14.300000 7.000000
v 0.894600 14.300000 10.000000
v 0.894600 14.300000 9.000000
v 0.879005 6.300000 7.000000
v 0.879005 6.300000 9.000000
v 0.894600 6.300000 10.000000
v 0.894600 6.300000 9.000000
v 0.879005 19.775753 9.000000
v 0.879005 0.975753 9.000000
v 13.894600 19.775753 9.000000
v 51.779003 19.775753 9.000000
v 0.894600 19.775753 9.000000
v 51.779003 5.375753 8.000000
v 51.779003 0.975753 9.000000
v 51.779003 5.375753 9.000000
v 51.779003 15.375753 8.000000
v 51.779003 15.375753 9.000000
v 4.197718 16.325930 10.000000
v 4.524287 16.154533 10.000000
v 4.882385 16.066269 10.000000
v 6.596677 17.584999 10.000000
v 6.552221 17.951126 10.000000
v 5.251199 16.066269 10.000000
v 6.421438 18.295973 10.000000
v 5.609297 16.154533 10.000000
v 6.211927 18.599501 10.000000
v 5.935866 16.325930 10.000000
v 5.935866 18.844070 10.000000
v 6.211927 16.570499 10.000000
v 5.609297 19.015467 10.000000
v 6.421438 16.874027 10.000000
v 6.552221 17.218874 10.000000
v 5.251199 19.103731 10.000000
v 4.882385 19.103731 10.000000
v 4.524287 19.015467 10.000000
v 4.197718 18.844070 10.000000
v 3.921657 18.599501 10.000000
v 3.712146 18.295973 10.000000
v 3.581363 17.951126 10.000000
v 3.536907 17.584999 10.000000
v 3.581363 17.218874 10.000000
v 3.712146 16.874027 10.000000
v 3.921657 16.570499 10.000000
v 15.900000 15.300000 9.000000
v 41.900002 15.300000 9.000000
v 15.900000 5.300000 9.000000
v 41.900002 5.300000 9.000000
v 4.196004 1.823446 10.000000
v 4.523217 1.651711 10.000000
v 4.882021 1.563274 10.000000
v 6.599695 3.085000 10.000000
v 6.555151 3.451848 10.000000
v 5.251563 1.563274 10.000000
v 6.424110 3.797375 10.000000
v 5.610367 1.651711 10.000000
v 6.214186 4.101503 10.000000
v 5.937580 1.823446 10.000000
v 5.937580 4.346554 10.000000
v 6.214186 2.068497 10.000000
v 5.610367 4.518289 10.000000
v 6.424110 2.372624 10.000000
v 6.555151 2.718152 10.000000
v 5.251563 4.606727 10.000000
v 4.882021 4.606727 10.000000
v 4.523217 4.518289 10.000000
v 4.196004 4.346554 10.000000
v 3.919398 4.101503 10.000000
v 3.709474 3.797375 10.000000
v 3.578432 3.451848 10.000000
v 3.533889 3.085000 10.000000
v 3.578432 2.718152 10.000000
v 3.709474 2.372624 10.000000
v 3.919398 2.068497 10.000000
v 0.894600 19.841942 9.000000
v 0.894600 19.841942 10.000000
v 0.894600 1.001693 9.000000
v 13.894600 1.001693 9.000000
v 48.812557 5.375753 9.000000
v 48.812557 15.375753 9.000000
v 0.894600 1.001693 10.000000
v 2.000000 14.300000 10.000000
v 2.000000 6.300000 10.000000
v 13.894600 19.841942 9.000000
v 48.812557 15.375753 8.000000
v 48.812557 5.375753 8.000000
v 13.894600 1.001693 10.000000
v 13.894600 19.841942 10.000000
vn 0.000000 1.000000 0.000000
vn 0.000000 1.000000 -0.000000
vn -1.000000 0.000000 0.000000
vn -1.000000 0.000000 0.000000
vn -1.000000 -0.000000 0.000000
vn -1.000000 0.000000 0.000000
vn -1.000000 0.000000 0.000000
vn -1.000000 -0.000000 0.000000
vn -1.000000 0.000000 0.000000
vn -1.000000 0.000000 0.000000
vn 1.000000 0.000000 0.000000
vn 1.000000 0.000000 0.000000
vn 0.000000 -0.000000 -1.000000
vn 0.000000 0.000000 -1.000000
vn 0.000000 0.000000 -1.000000
vn 0.000000 -0.000000 -1.000000
vn 0.000000 0.000000 -1.000000
vn 0.000000 0.000000 -1.000000
vn 0.000000 0.000000 -1.000000
vn 0.000000 0.000000 -1.000000
vn 0.000000 0.000000 1.000000
vn 0.000000 0.000000 1.000000
vn 0.000000 0.000000 1.000000
vn 0.000000 0.000000 1.000000
vn 0.000000 0.000000 1.000000
vn 0.000000 0.000000 1.000000
vn 0.000000 0.000000 1.000000
vn 0.000000 0.000000 1.000000
vn 0.000000 0.000000 1.000000
vn 0.000000 0.000000 1.000000
vn 0.000000 0.000000 1.000000
vn 0.000000 0.000000 1.000000
vn 0.000000 0.000000 1.000000
vn 0.000000 0.000000 1.000000
vn 0.000000 0.000000 1.000000
vn 0.000000 0.000000 1.000000
vn 0.000000 0.000000 1.000000
vn 0.000000 0.000000 1.000000
vn 0.000000 0.000000 1.000000
vn 0.000000 0.000000 1.000000
vn 0.000000 0.000000 1.000000
vn 0.000000 0.000000 1.000000
vn 0.000000 0.000000 1.000000
vn -0.000000 0.000000 1.000000
vn 0.000000 0.000000 1.000000
vn 0.000000 0.000000 1.000000
vn 0.000000 0.000000 1.000000
vn 0.000000 0.000000 1.000000
vn -0.000000 0.000000 1.000000
vn 0.000000 0.000000 1.000000
vn 0.000000 0.000000 1.000000
vn 0.000000 0.000000 1.000000
vn 0.000000 0.000000 1.000000
vn 0.000000 0.000000 1.000000
vn 0.000000 0.000000 1.000000
vn 0.000000 0.000000 1.000000
vn 0.000000 0.000000 1.000000
vn 0.000000 0.000000 1.000000
vn 0.000000 0.000000 1.000000
vn 0.000000 0.000000 1.000000
vn 0.000000 0.000000 1.000000
vn 0.000000 0.000000 1.000000
vn 0.000000 0.000000 1.000000
vn 0.000000 0.000000 1.000000
vn 0.000000 0.000000 1.000000
vn 0.000000 0.000000 1.000000
vn 0.000000 0.000000 1.000000
vn 0.000000 0.000000 1.000000
vn 0.000000 0.000000 1.000000
vn 0.000000 0.000000 1.000000
vn 0.000000 -0.000000 1.000000
vn 0.000000 0.000000 1.000000
vn 0.000000 0.000000 1.000000
vn 0.000000 0.000000 1.000000
vn 0.000000 0.000000 1.000000
vn 0.000000 0.000000 1.000000
vn 0.000000 0.000000 1.000000
vn 0.000000 0.000000 1.000000
vn 0.000000 0.000000 1.000000
vn 0.000000 0.000000 1.000000
vn -0.000000 0.000000 1.000000
vn -0.000000 0.000000 1.000000
vn 0.000000 0.000000 1.000000
vn 0.000000 -0.000000 1.000000
vn 0.000000 -1.000000 0.000000
vn 0.000000 -1.000000 0.000000
vn 0.000000 -1.000000 -0.000000
vn 0.000000 -1.000000 -0.000000
vn 0.000000 -1.000000 0.000000
vn 0.000000 -1.000000 0.000000
vn -0.000000 0.000000 1.000000
vn 0.000000 0.000000 1.000000
vn 0.000000 1.000000 0.000000
vn 0.000000 1.000000 -0.000000
vn 0.000000 1.000000 0.000000
vn 0.000000 1.000000 0.000000
vn 0.000000 0.000000 -1.000000
vn 0.000000 0.000000 -1.000000
vn 1.000000 0.000000 0.000000
vn 1.000000 0.000000 -0.000000
vn 1.000000 -0.000000 0.000000
vn 1.000000 0.000000 0.000000
vn 1.000000 0.000000 0.000000
vn 1.000000 0.000000 0.000000
vn 0.000000 -1.000000 0.000000
vn 0.000000 -1.000000 0.000000
vn 0.000000 -1.000000 0.000000
vn 0.000000 -1.000000 0.000000
vn -1.000000 0.000000 0.000000
vn -1.000000 0.000000 0.000000
vn -1.000000 -0.000000 0.000000
vn -1.000000 0.000000 0.000000
vn -1.000000 0.000000 0.000000
vn -1.000000 0.000000 0.000000
vn 0.000000 1.000000 0.000000
vn 0.000000 1.000000 -0.000000
vn 0.464722 0.885457 0.000000
vn 0.464722 0.885457 0.000000
vn 0.239319 0.970941 0.000000
vn 0.239319 0.970941 0.000000
vn -0.992709 -0.120536 0.000000
vn -0.000000 1.000000 0.000000
vn -0.992709 -0.120536 -0.000000
vn 0.000000 1.000000 0.000000
vn -0.935016 -0.354606 0.000000
vn -0.239319 0.970941 0.000000
vn -0.935016 -0.354606 -0.000000
vn -0.239319 0.970941 0.000000
vn -0.822984 -0.568065 0.000000
vn -0.464722 0.885457 0.000000
vn -0.464722 0.885457 0.000000
vn -0.822984 -0.568065 -0.000000
vn -0.663124 -0.748510 0.000000
vn -0.663124 0.748510 0.000000
vn -0.663124 0.748510 0.000000
vn -0.663124 -0.748510 -0.000000
vn -0.464722 -0.885457 0.000000
vn -0.822984 0.568065 0.000000
vn -0.464722 -0.885457 -0.000000
vn -0.822984 0.568065 0.000000
vn -0.935016 0.354606 0.000000
vn -0.239319 -0.970941 0.000000
vn -0.935016 0.354606 0.000000
vn -0.992709 0.120536 0.000000
vn -0.239319 -0.970941 -0.000000
vn -0.992709 0.120536 0.000000
vn 0.000000 -1.000000 0.000000
vn -0.000000 -1.000000 -0.000000
vn 0.239319 -0.970941 0.000000
vn 0.239319 -0.970941 0.000000
vn 0.464722 -0.885457 0.000000
vn 0.464722 -0.885457 0.000000
vn 0.663124 -0.748510 0.000000
vn 0.663124 -0.748510 0.000000
vn 0.822983 -0.568066 0.000000
vn 0.822983 -0.568066 0.000000
vn 0.935016 -0.354605 0.000000
vn 0.935016 -0.354605 0.000000
vn 0.992709 -0.120536 0.000000
vn 0.992709 -0.120536 0.000000
vn 0.992709 0.120537 0.000000
vn 0.992709 0.120537 0.000000
vn 0.935016 0.354605 0.000000
vn 0.935016 0.354605 0.000000
vn 0.822983 0.568066 0.000000
vn 0.822983 0.568066 0.000000
vn 0.663124 0.748510 0.000000
vn 0.663124 0.748510 0.000000
vn -0.000000 -1.000000 0.000000
vn 0.000000 -1.000000 -0.000000
vn 1.000000 0.000000 0.000000
vn 1.000000 0.000000 0.000000
vn -1.000000 0.000000 0.000000
vn -1.000000 0.000000 0.000000
vn -0.000000 1.000000 0.000000
vn 0.000000 1.000000 0.000000
vn 0.464723 0.885456 0.000000
vn 0.464723 0.885456 0.000000
vn 0.239316 0.970942 0.000000
vn 0.239316 0.970942 0.000000
vn -0.992709 -0.120538 0.000000
vn -0.000000 1.000000 0.000000
vn -0.992709 -0.120538 -0.000000
vn 0.000000 1.000000 0.000000
vn -0.935017 -0.354604 0.000000
vn -0.239316 0.970942 0.000000
vn -0.935017 -0.354604 -0.000000
vn -0.239316 0.970942 0.000000
vn -0.822984 -0.568065 0.000000
vn -0.464723 0.885456 0.000000
vn -0.464723 0.885456 0.000000
vn -0.822984 -0.568065 -0.000000
vn -0.663122 -0.748511 0.000000
vn -0.663123 0.748511 0.000000
vn -0.663123 0.748511 0.000000
vn -0.663122 -0.748511 -0.000000
vn -0.464723 -0.885456 0.000000
vn -0.822983 0.568065 0.000000
vn -0.464723 -0.885456 -0.000000
vn -0.822983 0.568065 0.000000
vn -0.935017 0.354604 0.000000
vn -0.239317 -0.970942 0.000000
vn -0.935017 0.354604 0.000000
vn -0.992709 0.120538 0.000000
vn -0.239317 -0.970942 -0.000000
vn -0.992709 0.120538 0.000000
vn 0.000000 -1.000000 0.000000
vn -0.000000 -1.000000 -0.000000
vn 0.239317 -0.970942 0.000000
vn 0.239317 -0.970942 0.000000
vn 0.464723 -0.885456 0.000000
vn 0.464723 -0.885456 0.000000
vn 0.663122 -0.748511 0.000000
vn 0.663122 -0.748511 0.000000
vn 0.822984 -0.568064 0.000000
vn 0.822984 -0.568064 0.000000
vn 0.935016 -0.354605 0.000000
vn 0.935016 -0.354605 0.000000
vn 0.992709 -0.120536 0.000000
vn 0.992709 -0.120536 0.000000
vn 0.992709 0.120536 0.000000
vn 0.992709 0.120536 0.000000
vn 0.935016 0.354605 0.000000
vn 0.935016 0.354605 0.000000
vn 0.822984 0.568065 0.000000
vn 0.822984 0.568065 0.000000
vn 0.663122 0.748511 0.000000
vn 0.663122 0.748511 0.000000
vn 1.000000 0.000000 0.000000
vn 1.000000 -0.000000 0.000000
vn 1.000000 0.000000 0.000000
vn 0.000000 0.000000 -1.000000
vn 0.000000 0.000000 -1.000000
vn 0.000000 0.000000 -1.000000
vn 0.000000 0.000000 -1.000000
vn 0.000000 -0.000000 -1.000000
vn 0.000000 -0.000000 -1.000000
vn 0.000000 -0.000000 -1.000000
vn 0.000000 0.000000 -1.000000
vn 0.000000 0.000000 -1.000000
vn 0.000000 0.000000 -1.000000
vn 0.000000 0.000000 -1.000000
vn 0.000000 0.000000 -1.000000
vn 0.000000 0.000000 -1.000000
vn 0.000000 0.000000 -1.000000
vn 0.000000 0.000000 -1.000000
vn 0.000000 0.000000 -1.000000
vn 0.000000 0.000000 -1.000000
vn 0.000000 0.000000 -1.000000
vn 1.000000 0.000000 0.000000
vn 1.000000 0.000000 0.000000
vn 0.000000 0.000000 -1.000000
vn 0.000000 0.000000 -1.000000
vn 0.000000 0.000000 1.000000
vn 0.000000 0.000000 1.000000
vn 0.000000 1.000000 0.000000
vn -0.000000 1.000000 0.000000
vn 0.000000 0.000000 -1.000000
vn 0.000000 0.000000 -1.000000
vn 0.000000 -1.000000 -0.000000
vn -0.000000 -1.000000 0.000000
vn 0.000000 -0.000000 -1.000000
vn 0.000000 -0.000000 -1.000000
vn 0.000000 -0.000000 -1.000000
vn 0.000000 -0.000000 -1.000000
vn 0.000000 0.000000 -1.000000
vn 0.000000 0.000000 -1.000000
vn 0.000000 0.000000 -1.000000
vn 0.000000 0.000000 -1.000000
vn 0.000000 0.000000 -1.000000
vn 0.000000 0.000000 -1.000000
vn 0.000000 0.000000 -1.000000
vn 0.000000 -0.000000 -1.000000
vn 0.000000 0.000000 -1.000000
vn 0.000000 -0.000000 -1.000000
vn 0.000000 -0.000000 -1.000000
vn 0.000000 -0.000000 -1.000000
vn 0.000000 0.000000 -1.000000
vn 0.000000 0.000000 -1.000000
vn 0.000000 0.000000 -1.000000
vn 0.000000 0.000000 -1.000000
vn 0.000000 -0.000000 -1.000000
vn 0.000000 -0.000000 -1.000000
vn 0.000000 0.000000 -1.000000
vn 0.000000 0.000000 -1.000000
vn 0.000000 -0.000000 -1.000000
vn 0.000000 -0.000000 -1.000000
vn 0.000000 0.000000 -1.000000
vn 0.000000 0.000000 -1.000000
vn 0.000000 0.000000 -1.000000
vn 0.000000 0.000000 -1.000000
vn 0.000000 -0.000000 -1.000000
vn 0.000000 0.000000 -1.000000
vn 0.000000 0.000000 -1.000000
vn 0.000000 0.000000 -1.000000
vn 0.000000 -0.000000 -1.000000
vn 0.000000 0.000000 -1.000000
vn 0.000000 0.000000 -1.000000
vn 0.000000 0.000000 -1.000000
vn 0.000000 0.000000 -1.000000
vn 0.000000 0.000000 -1.000000
vn 0.000000 0.000000 -1.000000
vn 0.000000 0.000000 -1.000000
vn 0.000000 0.000000 -1.000000
vn 0.000000 0.000000 -1.000000
vn 0.000000 0.000000 -1.000000
vn 0.000000 0.000000 -1.000000
vn 0.000000 0.000000 -1.000000
vn 0.000000 0.000000 -1.000000
vn 0.000000 0.000000 -1.000000
vn 0.000000 0.000000 -1.000000
vn 0.000000 0.000000 -1.000000
vn 0.000000 0.000000 -1.000000
vn 0.000000 0.000000 -1.000000
vn 0.000000 0.000000 -1.000000
vn 0.000000 0.000000 -1.000000
vn 0.000000 0.000000 -1.000000
vn 0.000000 0.000000 -1.000000
vn 0.000000 0.000000 -1.000000
vn 0.000000 -0.000000 -1.000000
vn 0.000000 -0.000000 -1.000000
vn 0.000000 -0.000000 -1.000000
vn 0.000000 -0.000000 -1.000000
vn 0.000000 -1.000000 0.000000
vn 0.000000 -1.000000 0.000000
vn 0.000000 1.000000 0.000000
vn 0.000000 1.000000 -0.000000
vn -1.000000 0.000000 0.000000
vn -1.000000 0.000000 0.000000
vn -1.000000 0.000000 0.000000
vn -1.000000 0.000000 0.000000
vn -1.000000 0.000000 0.000000
f 1//1 2//1 3//1
f 1//2 3//2 4//2
f 5//3 6//3 7//3
f 8//4 6//4 5//4
f 9//5 8//5 5//5
f 3//6 9//6 10//6
f 3//7 10//7 7//7
f 3//8 7//8 6//8
f 2//9 9//9 3//9
f 2//10 8//10 9//10
f 11//11 1//11 4//11
f 11//12 4//12 12//12
f 1//13 11//13 13//13
f 14//14 1//14 13//14
f 8//15 13//15 11//15
f 15//16 13//16 8//16
f 2//17 16//17 15//17
f 2//18 15//18 8//18
f 2//19 1//19 14//19
f 2//20 14//20 16//20
f 17//21 3//21 18//21
f 18//22 3//22 19//22
f 20//23 21//23 22//23
f 4//24 23//24 12//24
f 19//25 3//25 24//25
f 24//26 3//26 25//26
f 26//27 21//27 20//27
f 25//28 3//28 27//28
f 27//29 3//29 28//29
f 22//30 21//30 29//30
f 12//31 23//31 30//31
f 28//32 3//32 31//32
f 31//33 3//33 32//33
f 32//34 3//34 33//34
f 34//35 3//35 6//35
f 30//36 35//36 12//36
f 33//37 3//37 34//37
f 4//38 3//38 17//38
f 4//39 17//39 36//39
f 4//40 36//40 37//40
f 20//41 38//41 26//41
f 4//42 37//42 20//42
f 4//43 20//43 23//43
f 39//44 40//44 35//44
f 29//45 41//45 42//45
f 35//46 43//46 39//46
f 21//47 41//47 29//47
f 35//48 44//48 12//48
f 40//49 44//49 35//49
f 20//50 45//50 38//50
f 41//51 46//51 42//51
f 35//52 47//52 43//52
f 42//53 46//53 48//53
f 35//54 49//54 47//54
f 20//55 50//55 45//55
f 46//56 51//56 48//56
f 35//57 52//57 49//57
f 20//58 53//58 50//58
f 51//59 54//59 48//59
f 35//60 55//60 52//60
f 48//61 54//61 56//61
f 35//62 57//62 55//62
f 20//63 58//63 53//63
f 56//64 59//64 60//64
f 54//65 59//65 56//65
f 35//66 22//66 57//66
f 20//67 61//67 58//67
f 59//68 62//68 60//68
f 60//69 62//69 63//69
f 20//70 37//70 61//70
f 35//71 20//71 22//71
f 62//72 33//72 63//72
f 63//73 33//73 34//73
f 64//74 6//74 65//74
f 65//75 6//75 66//75
f 66//76 6//76 67//76
f 67//77 6//77 68//77
f 68//78 6//78 69//78
f 69//79 6//79 70//79
f 70//80 6//80 71//80
f 71//81 6//81 72//81
f 72//82 6//82 44//82
f 44//83 6//83 12//83
f 64//84 34//84 6//84
f 8//85 11//85 12//85
f 8//86 12//86 6//86
f 73//87 9//87 74//87
f 75//88 73//88 76//88
f 10//89 73//89 75//89
f 10//90 9//90 73//90
f 9//91 77//91 74//91
f 9//92 5//92 77//92
f 78//93 79//93 80//93
f 78//94 7//94 79//94
f 5//95 78//95 77//95
f 5//96 7//96 78//96
f 7//97 75//97 79//97
f 7//98 10//98 75//98
f 74//99 81//99 73//99
f 16//100 81//100 74//100
f 82//101 77//101 78//101
f 15//102 74//102 77//102
f 15//103 16//103 74//103
f 15//104 77//104 82//104
f 83//105 14//105 84//105
f 16//106 83//106 85//106
f 16//107 85//107 81//107
f 16//108 14//108 83//108
f 86//109 87//109 88//109
f 13//110 87//110 86//110
f 84//111 89//111 90//111
f 14//112 86//112 89//112
f 14//113 13//113 86//113
f 14//114 89//114 84//114
f 13//115 15//115 82//115
f 13//116 82//116 87//116
f 59//117 54//117 91//117
f 91//118 54//118 92//118
f 54//119 51//119 92//119
f 92//120 51//120 93//120
f 94//121 53//121 95//121
f 51//122 46//122 93//122
f 50//123 53//123 94//123
f 93//124 46//124 96//124
f 95//125 58//125 97//125
f 46//126 41//126 96//126
f 53//127 58//127 95//127
f 96//128 41//128 98//128
f 97//129 61//129 99//129
f 41//130 21//130 98//130
f 98//131 21//131 100//131
f 58//132 61//132 97//132
f 99//133 37//133 101//133
f 21//134 26//134 100//134
f 100//135 26//135 102//135
f 61//136 37//136 99//136
f 101//137 36//137 103//137
f 102//138 38//138 104//138
f 37//139 36//139 101//139
f 26//140 38//140 102//140
f 104//141 45//141 105//141
f 103//142 17//142 106//142
f 38//143 45//143 104//143
f 105//144 50//144 94//144
f 36//145 17//145 103//145
f 45//146 50//146 105//146
f 106//147 18//147 107//147
f 17//148 18//148 106//148
f 107//149 19//149 108//149
f 18//150 19//150 107//150
f 108//151 24//151 109//151
f 19//152 24//152 108//152
f 109//153 25//153 110//153
f 24//154 25//154 109//154
f 110//155 27//155 111//155
f 25//156 27//156 110//156
f 27//157 28//157 111//157
f 111//158 28//158 112//158
f 28//159 31//159 112//159
f 112//160 31//160 113//160
f 31//161 32//161 113//161
f 113//162 32//162 114//162
f 32//163 33//163 114//163
f 114//164 33//164 115//164
f 33//165 62//165 115//165
f 115//166 62//166 116//166
f 62//167 59//167 116//167
f 116//168 59//168 91//168
f 23//169 20//169 117//169
f 23//170 117//170 118//170
f 117//171 35//171 119//171
f 20//172 35//172 117//172
f 120//173 23//173 118//173
f 30//174 23//174 120//174
f 35//175 30//175 120//175
f 35//176 120//176 119//176
f 69//177 70//177 121//177
f 121//178 70//178 122//178
f 70//179 71//179 122//179
f 122//180 71//180 123//180
f 124//181 52//181 125//181
f 71//182 72//182 123//182
f 49//183 52//183 124//183
f 123//184 72//184 126//184
f 125//185 55//185 127//185
f 72//186 44//186 126//186
f 52//187 55//187 125//187
f 126//188 44//188 128//188
f 127//189 57//189 129//189
f 44//190 40//190 128//190
f 128//191 40//191 130//191
f 55//192 57//192 127//192
f 129//193 22//193 131//193
f 40//194 39//194 130//194
f 130//195 39//195 132//195
f 57//196 22//196 129//196
f 131//197 29//197 133//197
f 132//198 43//198 134//198
f 22//199 29//199 131//199
f 39//200 43//200 132//200
f 134//201 47//201 135//201
f 133//202 42//202 136//202
f 43//203 47//203 134//203
f 135//204 49//204 124//204
f 29//205 42//205 133//205
f 47//206 49//206 135//206
f 136//207 48//207 137//207
f 42//208 48//208 136//208
f 137//209 56//209 138//209
f 48//210 56//210 137//210
f 138//211 60//211 139//211
f 56//212 60//212 138//212
f 139//213 63//213 140//213
f 60//214 63//214 139//214
f 140//215 34//215 141//215
f 63//216 34//216 140//216
f 34//217 64//217 141//217
f 141//218 64//218 142//218
f 64//219 65//219 142//219
f 142//220 65//220 143//220
f 65//221 66//221 143//221
f 143//222 66//222 144//222
f 66//223 67//223 144//223
f 144//224 67//224 145//224
f 67//225 68//225 145//225
f 145//226 68//226 146//226
f 68//227 69//227 146//227
f 146//228 69//228 121//228
f 85//229 147//229 148//229
f 75//230 85//230 148//230
f 76//231 85//231 75//231
f 73//232 85//232 76//232
f 81//233 85//233 73//233
f 82//234 78//234 149//234
f 78//235 80//235 149//235
f 149//236 150//236 82//236
f 119//237 120//237 150//237
f 120//238 87//238 150//238
f 120//239 151//239 87//239
f 151//240 88//240 87//240
f 83//241 118//241 117//241
f 120//242 118//242 151//242
f 118//243 152//243 151//243
f 152//244 84//244 90//244
f 118//245 84//245 152//245
f 150//246 83//246 119//246
f 119//247 83//247 117//247
f 83//248 84//248 118//248
f 87//249 82//249 150//249
f 149//250 80//250 79//250
f 149//251 79//251 153//251
f 75//252 154//252 79//252
f 79//253 154//253 155//253
f 156//254 147//254 85//254
f 156//255 85//255 83//255
f 152//256 89//256 157//256
f 152//257 90//257 89//257
f 157//258 89//258 158//258
f 158//259 89//259 86//259
f 88//260 158//260 86//260
f 88//261 151//261 158//261
f 135//262 159//262 134//262
f 124//263 159//263 135//263
f 126//264 159//264 153//264
f 146//265 121//265 153//265
f 155//266 154//266 136//266
f 153//267 145//267 146//267
f 95//268 160//268 94//268
f 97//269 160//269 95//269
f 99//270 160//270 97//270
f 101//271 160//271 99//271
f 103//272 160//272 101//272
f 121//273 122//273 153//273
f 102//274 160//274 159//274
f 104//275 160//275 102//275
f 105//276 160//276 104//276
f 94//277 160//277 105//277
f 153//278 144//278 145//278
f 148//279 160//279 107//279
f 107//280 160//280 106//280
f 106//281 160//281 103//281
f 122//282 123//282 153//282
f 116//283 91//283 154//283
f 153//284 143//284 144//284
f 154//285 115//285 116//285
f 123//286 126//286 153//286
f 91//287 92//287 154//287
f 153//288 142//288 143//288
f 75//289 114//289 154//289
f 154//290 114//290 115//290
f 153//291 79//291 142//291
f 92//292 93//292 154//292
f 148//293 113//293 75//293
f 75//294 113//294 114//294
f 154//295 96//295 136//295
f 93//296 96//296 154//296
f 148//297 112//297 113//297
f 141//298 155//298 140//298
f 142//299 155//299 141//299
f 136//300 98//300 133//300
f 79//301 155//301 142//301
f 96//302 98//302 136//302
f 155//303 139//303 140//303
f 148//304 111//304 112//304
f 133//305 100//305 131//305
f 98//306 100//306 133//306
f 148//307 110//307 111//307
f 155//308 138//308 139//308
f 129//309 102//309 159//309
f 131//310 102//310 129//310
f 100//311 102//311 131//311
f 155//312 137//312 138//312
f 148//313 109//313 110//313
f 155//314 136//314 137//314
f 148//315 108//315 109//315
f 148//316 107//316 108//316
f 125//317 159//317 124//317
f 127//318 159//318 125//318
f 129//319 159//319 127//319
f 128//320 159//320 126//320
f 130//321 159//321 128//321
f 132//322 159//322 130//322
f 134//323 159//323 132//323
f 147//324 156//324 160//324
f 147//325 160//325 148//325
f 150//326 149//326 153//326
f 150//327 153//327 159//327
f 83//328 150//328 159//328
f 83//329 159//329 160//329
f 156//330 83//330 160//330
f 151//331 152//331 157//331
f 151//332 157//332 158//332
