# Created by FreeCAD <http://www.freecadweb.org>
v 52.700001 20.600000 0.000000
v 0.000000 20.600000 0.000000
v 0.000000 20.600000 1.000000
v 52.700001 20.600000 1.000000
v 0.000000 0.000000 0.000000
v 0.000000 0.000000 1.000000
v 52.700001 0.000000 0.000000
v 52.700001 0.000000 1.000000
v 51.799999 19.700001 1.000000
v 51.799999 0.900000 1.000000
v 0.900000 0.900000 1.000000
v 0.900000 19.700001 1.000000
v 0.900000 19.700001 2.500000
v 51.799999 19.700001 2.500000
v 51.799999 0.900000 2.500000
v 0.900000 0.900000 2.500000
v 0.900000 7.800000 2.500000
v 0.900000 12.800000 2.500000
v 51.700001 8.300000 2.500000
v 46.700001 8.300000 2.500000
v 51.700001 12.300000 2.500000
v 46.700001 12.300000 2.500000
v 3.900000 7.800000 2.500000
v 3.900000 12.800000 2.500000
v 0.900000 12.760718 3.500000
v 0.900000 7.800000 3.500000
v 0.900000 12.800000 3.500000
v 3.900000 12.800000 3.500000
v 3.900000 7.800000 3.500000
v 3.190392 7.800000 3.500000
v 46.700001 12.300000 3.500000
v 51.700001 12.300000 3.500000
v 51.700001 8.300000 3.500000
v 46.700001 8.300000 3.500000
v 3.190392 7.795688 3.500000
v 0.897571 7.795688 3.500000
v 0.897571 12.760718 3.500000
v 3.190392 12.760718 3.500000
v 0.897571 7.795688 7.000000
v 0.897571 12.760718 7.000000
v 3.190392 7.795688 7.000000
v 3.190392 12.760718 7.000000
vn 0.000000 1.000000 0.000000
vn 0.000000 1.000000 -0.000000
vn -1.000000 0.000000 0.000000
vn -1.000000 0.000000 0.000000
vn 1.000000 0.000000 0.000000
vn 1.000000 0.000000 0.000000
vn 0.000000 0.000000 -1.000000
vn 0.000000 0.000000 -1.000000
vn 0.000000 0.000000 1.000000
vn 0.000000 0.000000 1.000000
vn -0.000000 0.000000 1.000000
vn 0.000000 0.000000 1.000000
vn 0.000000 0.000000 1.000000
vn 0.000000 0.000000 1.000000
vn 0.000000 0.000000 1.000000
vn 0.000000 0.000000 1.000000
vn 0.000000 -1.000000 0.000000
vn 0.000000 -1.000000 0.000000
vn 0.000000 1.000000 0.000000
vn 0.000000 1.000000 -0.000000
vn 1.000000 -0.000000 0.000000
vn 1.000000 0.000000 0.000000
vn 0.000000 -1.000000 0.000000
vn 0.000000 -1.000000 0.000000
vn -1.000000 -0.000000 0.000000
vn -1.000000 0.000000 0.000000
vn -1.000000 0.000000 0.000000
vn -1.000000 0.000000 0.000000
vn 0.000000 0.000000 1.000000
vn 0.000000 -0.000000 1.000000
vn 0.000000 0.000000 1.000000
vn 0.000000 0.000000 1.000000
vn 0.000000 0.000000 1.000000
vn 0.000000 0.000000 1.000000
vn 0.000000 0.000000 1.000000
vn 0.000000 0.000000 1.000000
vn 0.000000 0.000000 1.000000
vn 0.000000 0.000000 1.000000
vn 0.000000 -0.000000 1.000000
vn 0.000000 0.000000 1.000000
vn -1.000000 -0.000000 0.000000
vn -1.000000 0.000000 0.000000
vn -1.000000 0.000000 0.000000
vn 0.000000 1.000000 0.000000
vn 0.000000 1.000000 -0.000000
vn 1.000000 0.000000 0.000000
vn 1.000000 0.000000 0.000000
vn 0.000000 -1.000000 0.000000
vn 0.000000 -1.000000 0.000000
vn 0.000000 -1.000000 0.000000
vn 0.000000 1.000000 0.000000
vn 0.000000 1.000000 -0.000000
vn 1.000000 0.000000 0.000000
vn 1.000000 0.000000 0.000000
vn 0.000000 -1.000000 0.000000
vn 0.000000 -1.000000 0.000000
vn -1.000000 0.000000 0.000000
vn -1.000000 0.000000 0.000000
vn 0.000000 -0.000000 -1.000000
vn 0.000000 0.000000 -1.000000
vn 0.000000 0.000000 -1.000000
vn 0.000000 0.000000 -1.000000
vn 0.000000 0.000000 1.000000
vn 0.000000 0.000000 1.000000
vn 0.000000 0.000000 1.000000
vn 0.000000 0.000000 1.000000
vn 0.000000 0.000000 1.000000
vn 0.000000 0.000000 1.000000
vn -1.000000 0.000000 0.000000
vn -1.000000 0.000000 0.000000
vn 0.000000 -1.000000 0.000000
vn 0.000000 -1.000000 0.000000
vn 1.000000 0.000000 0.000000
vn 1.000000 0.000000 -0.000000
vn 1.000000 0.000000 0.000000
vn 0.000000 1.000000 0.000000
vn 0.000000 1.000000 -0.000000
vn 0.000000 1.000000 -0.000000
vn 0.000000 0.000000 1.000000
vn 0.000000 0.000000 1.000000
f 1//1 2//1 3//1
f 1//2 3//2 4//2
f 2//3 5//3 6//3
f 2//4 6//4 3//4
f 7//5 1//5 4//5
f 7//6 4//6 8//6
f 2//7 1//7 7//7
f 2//8 7//8 5//8
f 4//9 9//9 8//9
f 8//10 9//10 10//10
f 11//11 6//11 10//11
f 10//12 6//12 8//12
f 12//13 3//13 11//13
f 11//14 3//14 6//14
f 4//15 3//15 9//15
f 9//16 3//16 12//16
f 5//17 7//17 8//17
f 5//18 8//18 6//18
f 9//19 12//19 13//19
f 9//20 13//20 14//20
f 15//21 9//21 14//21
f 10//22 9//22 15//22
f 11//23 10//23 15//23
f 11//24 15//24 16//24
f 17//25 11//25 16//25
f 12//26 18//26 13//26
f 12//27 11//27 17//27
f 12//28 17//28 18//28
f 19//29 20//29 15//29
f 21//30 14//30 22//30
f 20//31 16//31 15//31
f 20//32 23//32 16//32
f 23//33 17//33 16//33
f 22//34 24//34 20//34
f 20//35 24//35 23//35
f 24//36 13//36 18//36
f 14//37 13//37 22//37
f 22//38 13//38 24//38
f 15//39 14//39 19//39
f 19//40 14//40 21//40
f 25//41 17//41 26//41
f 18//42 25//42 27//42
f 18//43 17//43 25//43
f 24//44 18//44 27//44
f 24//45 27//45 28//45
f 23//46 24//46 28//46
f 23//47 28//47 29//47
f 23//48 29//48 30//48
f 17//49 30//49 26//49
f 17//50 23//50 30//50
f 21//51 22//51 31//51
f 21//52 31//52 32//52
f 19//53 21//53 32//53
f 19//54 32//54 33//54
f 20//55 19//55 33//55
f 20//56 33//56 34//56
f 22//57 20//57 34//57
f 22//58 34//58 31//58
f 26//59 35//59 36//59
f 26//60 30//60 35//60
f 37//61 25//61 26//61
f 37//62 26//62 36//62
f 29//63 38//63 30//63
f 28//64 38//64 29//64
f 38//65 27//65 25//65
f 28//66 27//66 38//66
f 32//67 31//67 33//67
f 33//68 31//68 34//68
f 37//69 36//69 39//69
f 37//70 39//70 40//70
f 36//71 35//71 41//71
f 36//72 41//72 39//72
f 30//73 38//73 42//73
f 30//74 42//74 41//74
f 35//75 30//75 41//75
f 25//76 37//76 40//76
f 25//77 40//77 42//77
f 38//78 25//78 42//78
f 42//79 40//79 41//79
f 41//80 40//80 39//80
